<svg width="40" height="40" viewBox="0 0 40 40" fill="none" xmlns="http://www.w3.org/2000/svg">
<rect x="1" y="1" width="38" height="38" rx="9" stroke="#EEEEEE" stroke-width="2"/>
<path d="M30.3125 19.5C30.3125 19.7969 30.2891 20.0547 30.2422 20.2734C30.1953 20.4766 30.1328 20.6484 30.0547 20.7891C29.9766 20.9297 29.8828 21.0312 29.7734 21.0938C29.6641 21.1562 29.5469 21.1875 29.4219 21.1875H21.7344V29.7188C21.7344 29.8438 21.7031 29.9531 21.6406 30.0469C21.5781 30.125 21.4766 30.1953 21.3359 30.2578C21.2109 30.3203 21.0391 30.375 20.8203 30.4219C20.6016 30.4531 20.3281 30.4688 20 30.4688C19.6875 30.4688 19.4141 30.4531 19.1797 30.4219C18.9609 30.375 18.7812 30.3203 18.6406 30.2578C18.5156 30.1953 18.4219 30.125 18.3594 30.0469C18.2969 29.9531 18.2656 29.8438 18.2656 29.7188V21.1875H10.5781C10.4375 21.1875 10.3125 21.1562 10.2031 21.0938C10.1094 21.0312 10.0234 20.9297 9.94531 20.7891C9.86719 20.6484 9.80469 20.4766 9.75781 20.2734C9.71094 20.0547 9.6875 19.7969 9.6875 19.5C9.6875 19.2188 9.71094 18.9766 9.75781 18.7734C9.80469 18.5547 9.86719 18.375 9.94531 18.2344C10.0234 18.0938 10.1094 17.9922 10.2031 17.9297C10.3125 17.8672 10.4297 17.8359 10.5547 17.8359H18.2656V9.30469C18.2656 9.17969 18.2969 9.07031 18.3594 8.97656C18.4219 8.86719 18.5156 8.78125 18.6406 8.71875C18.7812 8.64063 18.9609 8.58594 19.1797 8.55469C19.4141 8.50781 19.6875 8.48438 20 8.48438C20.3281 8.48438 20.6016 8.50781 20.8203 8.55469C21.0391 8.58594 21.2109 8.64063 21.3359 8.71875C21.4766 8.78125 21.5781 8.86719 21.6406 8.97656C21.7031 9.07031 21.7344 9.17969 21.7344 9.30469V17.8359H29.4453C29.5703 17.8359 29.6797 17.8672 29.7734 17.9297C29.8828 17.9922 29.9766 18.0938 30.0547 18.2344C30.1484 18.375 30.2109 18.5547 30.2422 18.7734C30.2891 18.9766 30.3125 19.2188 30.3125 19.5Z" fill="#EEEEEE"/>
</svg>
