<svg width="40" height="40" viewBox="0 0 40 40" fill="none" xmlns="http://www.w3.org/2000/svg">
<rect x="1" y="1" width="38" height="38" rx="9" stroke="#EEEEEE" stroke-width="2"/>
<path d="M25.7188 20.1641C25.7188 20.7734 25.6484 21.1953 25.5078 21.4297C25.3672 21.6641 25.1641 21.7812 24.8984 21.7812H15.1016C14.8203 21.7812 14.6094 21.6641 14.4688 21.4297C14.3281 21.1797 14.2578 20.7578 14.2578 20.1641C14.2578 19.5703 14.3281 19.1562 14.4688 18.9219C14.6094 18.6875 14.8203 18.5703 15.1016 18.5703H24.8984C25.0234 18.5703 25.1328 18.5938 25.2266 18.6406C25.3359 18.6875 25.4219 18.7812 25.4844 18.9219C25.5625 19.0469 25.6172 19.2109 25.6484 19.4141C25.6953 19.6172 25.7188 19.8672 25.7188 20.1641Z" fill="#EEEEEE"/>
</svg>
